<svg xmlns="http://www.w3.org/2000/svg" width="130mm" height="30mm" version="1.1" viewBox="0 0 1992 384">
  <path fill="#2B2A29" d="M-0 183.98l1992.58 0 0 3.08 -1992.58 0 0 -3.08zm19.63 156.28l1952.16 0 0 3.08 -1952.16 0 0 -3.08zm71.02 -299.47l1881.14 0 0 3.08 -1881.14 0 0 -3.08zm-54.76 239.06l1854.68 0 0 3.08 -1854.68 0 0 -3.08z"/>
  <path fill="#393185" d="M21.73 382.85l-2.63 -1.61 16.05 -26.29 2.63 1.61 -16.05 26.29zm24.08 -39.44l-2.63 -1.61 16.05 -26.29 2.63 1.61 -16.05 26.29zm24.07 -39.44l-2.63 -1.61 16.05 -26.29 2.63 1.61 -16.05 26.29zm24.07 -39.44l-2.63 -1.61 16.05 -26.29 2.63 1.61 -16.05 26.29zm24.07 -39.44l-2.63 -1.61 16.05 -26.29 2.63 1.61 -16.05 26.29zm24.07 -39.44l-2.63 -1.61 16.05 -26.29 2.63 1.61 -16.05 26.29zm24.07 -39.44l-2.63 -1.61 16.05 -26.29 2.63 1.61 -16.05 26.29zm24.07 -39.44l-2.63 -1.61 16.05 -26.29 2.63 1.61 -16.05 26.29zm24.07 -39.44l-2.63 -1.61 16.05 -26.29 2.63 1.61 -16.05 26.29zm24.07 -39.44l-2.63 -1.61 16.05 -26.29 2.63 1.61 -16.05 26.29zm-84.46 354.95l-2.63 -1.61 16.05 -26.29 2.63 1.61 -16.05 26.29zm24.08 -39.44l-2.63 -1.61 16.05 -26.29 2.63 1.61 -16.05 26.29zm24.07 -39.44l-2.63 -1.61 16.05 -26.29 2.63 1.61 -16.05 26.29zm24.07 -39.44l-2.63 -1.61 16.05 -26.29 2.63 1.61 -16.05 26.29zm24.07 -39.44l-2.63 -1.61 16.05 -26.29 2.63 1.61 -16.05 26.29zm24.07 -39.44l-2.63 -1.61 16.05 -26.29 2.63 1.61 -16.05 26.29zm24.07 -39.44l-2.63 -1.61 16.05 -26.29 2.63 1.61 -16.05 26.29zm24.07 -39.44l-2.63 -1.61 16.05 -26.29 2.63 1.61 -16.05 26.29zm24.07 -39.44l-2.63 -1.61 16.05 -26.29 2.63 1.61 -16.05 26.29zm24.07 -39.44l-2.63 -1.61 16.05 -26.29 2.63 1.61 -16.05 26.29zm-84.46 354.95l-2.63 -1.61 16.05 -26.29 2.63 1.61 -16.05 26.29zm24.08 -39.44l-2.63 -1.61 16.05 -26.29 2.63 1.61 -16.05 26.29zm24.07 -39.44l-2.63 -1.61 16.05 -26.29 2.63 1.61 -16.05 26.29zm24.07 -39.44l-2.63 -1.61 16.05 -26.29 2.63 1.61 -16.05 26.29zm24.07 -39.44l-2.63 -1.61 16.05 -26.29 2.63 1.61 -16.05 26.29zm24.07 -39.44l-2.63 -1.61 16.05 -26.29 2.63 1.61 -16.05 26.29zm24.07 -39.44l-2.63 -1.61 16.05 -26.29 2.63 1.61 -16.05 26.29zm24.07 -39.44l-2.63 -1.61 16.05 -26.29 2.63 1.61 -16.05 26.29zm24.07 -39.44l-2.63 -1.61 16.05 -26.29 2.63 1.61 -16.05 26.29zm24.07 -39.44l-2.63 -1.61 16.05 -26.29 2.63 1.61 -16.05 26.29zm-84.46 354.95l-2.63 -1.61 16.05 -26.29 2.63 1.61 -16.05 26.29zm24.08 -39.44l-2.63 -1.61 16.05 -26.29 2.63 1.61 -16.05 26.29zm24.07 -39.44l-2.63 -1.61 16.05 -26.29 2.63 1.61 -16.05 26.29zm24.07 -39.44l-2.63 -1.61 16.05 -26.29 2.63 1.61 -16.05 26.29zm24.07 -39.44l-2.63 -1.61 16.05 -26.29 2.63 1.61 -16.05 26.29zm24.07 -39.44l-2.63 -1.61 16.05 -26.29 2.63 1.61 -16.05 26.29zm24.07 -39.44l-2.63 -1.61 16.05 -26.29 2.63 1.61 -16.05 26.29zm24.07 -39.44l-2.63 -1.61 16.05 -26.29 2.63 1.61 -16.05 26.29zm24.07 -39.44l-2.63 -1.61 16.05 -26.29 2.63 1.61 -16.05 26.29zm24.07 -39.44l-2.63 -1.61 16.05 -26.29 2.63 1.61 -16.05 26.29zm-84.46 354.95l-2.63 -1.61 16.05 -26.29 2.63 1.61 -16.05 26.29zm24.08 -39.44l-2.63 -1.61 16.05 -26.29 2.63 1.61 -16.05 26.29zm24.07 -39.44l-2.63 -1.61 16.05 -26.29 2.63 1.61 -16.05 26.29zm24.07 -39.44l-2.63 -1.61 16.05 -26.29 2.63 1.61 -16.05 26.29zm24.07 -39.44l-2.63 -1.61 16.05 -26.29 2.63 1.61 -16.05 26.29zm24.07 -39.44l-2.63 -1.61 16.05 -26.29 2.63 1.61 -16.05 26.29zm24.07 -39.44l-2.63 -1.61 16.05 -26.29 2.63 1.61 -16.05 26.29zm24.07 -39.44l-2.63 -1.61 16.05 -26.29 2.63 1.61 -16.05 26.29zm24.07 -39.44l-2.63 -1.61 16.05 -26.29 2.63 1.61 -16.05 26.29zm24.07 -39.44l-2.63 -1.61 16.05 -26.29 2.63 1.61 -16.05 26.29zm-84.46 354.95l-2.63 -1.61 16.05 -26.29 2.63 1.61 -16.05 26.29zm24.08 -39.44l-2.63 -1.61 16.05 -26.29 2.63 1.61 -16.05 26.29zm24.07 -39.44l-2.63 -1.61 16.05 -26.29 2.63 1.61 -16.05 26.29zm24.07 -39.44l-2.63 -1.61 16.05 -26.29 2.63 1.61 -16.05 26.29zm24.07 -39.44l-2.63 -1.61 16.05 -26.29 2.63 1.61 -16.05 26.29zm24.07 -39.44l-2.63 -1.61 16.05 -26.29 2.63 1.61 -16.05 26.29zm24.07 -39.44l-2.63 -1.61 16.05 -26.29 2.63 1.61 -16.05 26.29zm24.07 -39.44l-2.63 -1.61 16.05 -26.29 2.63 1.61 -16.05 26.29zm24.07 -39.44l-2.63 -1.61 16.05 -26.29 2.63 1.61 -16.05 26.29zm24.07 -39.44l-2.63 -1.61 16.05 -26.29 2.63 1.61 -16.05 26.29zm-84.46 354.95l-2.63 -1.61 16.05 -26.29 2.63 1.61 -16.05 26.29zm24.08 -39.44l-2.63 -1.61 16.05 -26.29 2.63 1.61 -16.05 26.29zm24.07 -39.44l-2.63 -1.61 16.05 -26.29 2.63 1.61 -16.05 26.29zm24.07 -39.44l-2.63 -1.61 16.05 -26.29 2.63 1.61 -16.05 26.29zm24.07 -39.44l-2.63 -1.61 16.05 -26.29 2.63 1.61 -16.05 26.29zm24.07 -39.44l-2.63 -1.61 16.05 -26.29 2.63 1.61 -16.05 26.29zm24.07 -39.44l-2.63 -1.61 16.05 -26.29 2.63 1.61 -16.05 26.29zm24.07 -39.44l-2.63 -1.61 16.05 -26.29 2.63 1.61 -16.05 26.29zm24.07 -39.44l-2.63 -1.61 16.05 -26.29 2.63 1.61 -16.05 26.29zm24.07 -39.44l-2.63 -1.61 16.05 -26.29 2.63 1.61 -16.05 26.29zm-84.46 354.95l-2.63 -1.61 16.05 -26.29 2.63 1.61 -16.05 26.29zm24.08 -39.44l-2.63 -1.61 16.05 -26.29 2.63 1.61 -16.05 26.29zm24.07 -39.44l-2.63 -1.61 16.05 -26.29 2.63 1.61 -16.05 26.29zm24.07 -39.44l-2.63 -1.61 16.05 -26.29 2.63 1.61 -16.05 26.29zm24.07 -39.44l-2.63 -1.61 16.05 -26.29 2.63 1.61 -16.05 26.29zm24.07 -39.44l-2.63 -1.61 16.05 -26.29 2.63 1.61 -16.05 26.29zm24.07 -39.44l-2.63 -1.61 16.05 -26.29 2.63 1.61 -16.05 26.29zm24.07 -39.44l-2.63 -1.61 16.05 -26.29 2.63 1.61 -16.05 26.29zm24.07 -39.44l-2.63 -1.61 16.05 -26.29 2.63 1.61 -16.05 26.29zm24.07 -39.44l-2.63 -1.61 16.05 -26.29 2.63 1.61 -16.05 26.29zm-84.46 354.95l-2.63 -1.61 16.05 -26.29 2.63 1.61 -16.05 26.29zm24.08 -39.44l-2.63 -1.61 16.05 -26.29 2.63 1.61 -16.05 26.29zm24.07 -39.44l-2.63 -1.61 16.05 -26.29 2.63 1.61 -16.05 26.29zm24.07 -39.44l-2.63 -1.61 16.05 -26.29 2.63 1.61 -16.05 26.29zm24.07 -39.44l-2.63 -1.61 16.05 -26.29 2.63 1.61 -16.05 26.29zm24.07 -39.44l-2.63 -1.61 16.05 -26.29 2.63 1.61 -16.05 26.29zm24.07 -39.44l-2.63 -1.61 16.05 -26.29 2.63 1.61 -16.05 26.29zm24.07 -39.44l-2.63 -1.61 16.05 -26.29 2.63 1.61 -16.05 26.29zm24.07 -39.44l-2.63 -1.61 16.05 -26.29 2.63 1.61 -16.05 26.29zm24.07 -39.44l-2.63 -1.61 16.05 -26.29 2.63 1.61 -16.05 26.29zm-84.46 354.95l-2.63 -1.61 16.05 -26.29 2.63 1.61 -16.05 26.29zm24.08 -39.44l-2.63 -1.61 16.05 -26.29 2.63 1.61 -16.05 26.29zm24.07 -39.44l-2.63 -1.61 16.05 -26.29 2.63 1.61 -16.05 26.29zm24.07 -39.44l-2.63 -1.61 16.05 -26.29 2.63 1.61 -16.05 26.29zm24.07 -39.44l-2.63 -1.61 16.05 -26.29 2.63 1.61 -16.05 26.29zm24.07 -39.44l-2.63 -1.61 16.05 -26.29 2.63 1.61 -16.05 26.29zm24.07 -39.44l-2.63 -1.61 16.05 -26.29 2.63 1.61 -16.05 26.29zm24.07 -39.44l-2.63 -1.61 16.05 -26.29 2.63 1.61 -16.05 26.29zm24.07 -39.44l-2.63 -1.61 16.05 -26.29 2.63 1.61 -16.05 26.29zm24.07 -39.44l-2.63 -1.61 16.05 -26.29 2.63 1.61 -16.05 26.29zm-84.46 354.95l-2.63 -1.61 16.05 -26.29 2.63 1.61 -16.05 26.29zm24.08 -39.44l-2.63 -1.61 16.05 -26.29 2.63 1.61 -16.05 26.29zm24.07 -39.44l-2.63 -1.61 16.05 -26.29 2.63 1.61 -16.05 26.29zm24.07 -39.44l-2.63 -1.61 16.05 -26.29 2.63 1.61 -16.05 26.29zm24.07 -39.44l-2.63 -1.61 16.05 -26.29 2.63 1.61 -16.05 26.29zm24.07 -39.44l-2.63 -1.61 16.05 -26.29 2.63 1.61 -16.05 26.29zm24.07 -39.44l-2.63 -1.61 16.05 -26.29 2.63 1.61 -16.05 26.29zm24.07 -39.44l-2.63 -1.61 16.05 -26.29 2.63 1.61 -16.05 26.29zm24.07 -39.44l-2.63 -1.61 16.05 -26.29 2.63 1.61 -16.05 26.29zm24.07 -39.44l-2.63 -1.61 16.05 -26.29 2.63 1.61 -16.05 26.29zm-84.46 354.95l-2.63 -1.61 16.05 -26.29 2.63 1.61 -16.05 26.29zm24.08 -39.44l-2.63 -1.61 16.05 -26.29 2.63 1.61 -16.05 26.29zm24.07 -39.44l-2.63 -1.61 16.05 -26.29 2.63 1.61 -16.05 26.29zm24.07 -39.44l-2.63 -1.61 16.05 -26.29 2.63 1.61 -16.05 26.29zm24.07 -39.44l-2.63 -1.61 16.05 -26.29 2.63 1.61 -16.05 26.29zm24.07 -39.44l-2.63 -1.61 16.05 -26.29 2.63 1.61 -16.05 26.29zm24.07 -39.44l-2.63 -1.61 16.05 -26.29 2.63 1.61 -16.05 26.29zm24.07 -39.44l-2.63 -1.61 16.05 -26.29 2.63 1.61 -16.05 26.29zm24.07 -39.44l-2.63 -1.61 16.05 -26.29 2.63 1.61 -16.05 26.29zm24.07 -39.44l-2.63 -1.61 16.05 -26.29 2.63 1.61 -16.05 26.29zm-84.46 354.95l-2.63 -1.61 16.05 -26.29 2.63 1.61 -16.05 26.29zm24.08 -39.44l-2.63 -1.61 16.05 -26.29 2.63 1.61 -16.05 26.29zm24.07 -39.44l-2.63 -1.61 16.05 -26.29 2.63 1.61 -16.05 26.29zm24.07 -39.44l-2.63 -1.61 16.05 -26.29 2.63 1.61 -16.05 26.29zm24.07 -39.44l-2.63 -1.61 16.05 -26.29 2.63 1.61 -16.05 26.29zm24.07 -39.44l-2.63 -1.61 16.05 -26.29 2.63 1.61 -16.05 26.29zm24.07 -39.44l-2.63 -1.61 16.05 -26.29 2.63 1.61 -16.05 26.29zm24.07 -39.44l-2.63 -1.61 16.05 -26.29 2.63 1.61 -16.05 26.29zm24.07 -39.44l-2.63 -1.61 16.05 -26.29 2.63 1.61 -16.05 26.29zm24.07 -39.44l-2.63 -1.61 16.05 -26.29 2.63 1.61 -16.05 26.29zm-84.46 354.95l-2.63 -1.61 16.05 -26.29 2.63 1.61 -16.05 26.29zm24.08 -39.44l-2.63 -1.61 16.05 -26.29 2.63 1.61 -16.05 26.29zm24.07 -39.44l-2.63 -1.61 16.05 -26.29 2.63 1.61 -16.05 26.29zm24.07 -39.44l-2.63 -1.61 16.05 -26.29 2.63 1.61 -16.05 26.29zm24.07 -39.44l-2.63 -1.61 16.05 -26.29 2.63 1.61 -16.05 26.29zm24.07 -39.44l-2.63 -1.61 16.05 -26.29 2.63 1.61 -16.05 26.29zm24.07 -39.44l-2.63 -1.61 16.05 -26.29 2.63 1.61 -16.05 26.29zm24.07 -39.44l-2.63 -1.61 16.05 -26.29 2.63 1.61 -16.05 26.29zm24.07 -39.44l-2.63 -1.61 16.05 -26.29 2.63 1.61 -16.05 26.29zm24.07 -39.44l-2.63 -1.61 16.05 -26.29 2.63 1.61 -16.05 26.29zm-1936.11 139.64l4.99 -8.17 -2.63 -1.61 -4.99 8.17 2.63 1.61zm13.02 -21.32l-2.63 -1.61 16.05 -26.29 2.63 1.61 -16.05 26.29zm24.07 -39.44l-2.63 -1.61 16.05 -26.29 2.63 1.61 -16.05 26.29zm24.07 -39.44l-2.63 -1.61 16.05 -26.29 2.63 1.61 -16.05 26.29zm24.07 -39.44l-2.63 -1.61 16.05 -26.29 2.63 1.61 -16.05 26.29zm1765.64 356.22l4.99 -8.17 -2.63 -1.61 -4.99 8.17 2.63 1.61zm13.02 -21.32l-2.63 -1.61 16.05 -26.29 2.63 1.61 -16.05 26.29zm24.07 -39.44l-2.63 -1.61 16.05 -26.29 2.63 1.61 -16.05 26.29zm24.07 -39.44l-2.63 -1.61 16.05 -26.29 2.63 1.61 -16.05 26.29zm24.07 -39.44l-2.63 -1.61 16.05 -26.29 2.63 1.61 -16.05 26.29z"/>
   <path fill="#393185" d="M470.34 160.57c-5.48,5.47 -11.86,11.58 -19.17,18.31 -7.3,6.73 -15.01,13.01 -23.1,18.83 -8.1,5.82 -16.43,10.72 -24.99,14.72 -8.56,3.99 -17.06,5.99 -25.5,5.99 -5.93,0 -11.29,-1.14 -16.09,-3.42 -4.79,-2.28 -8.78,-5.36 -11.98,-9.24 -3.2,-3.88 -5.65,-8.33 -7.36,-13.35 -1.71,-5.02 -2.57,-10.39 -2.57,-16.09 0,-1.37 0.11,-2.91 0.34,-4.62 0.23,-1.71 0.57,-3.25 1.03,-4.62 -8.67,0 -17.57,-1.48 -26.7,-4.45 -9.13,-2.97 -17.4,-7.19 -24.82,-12.67 -7.41,-5.48 -13.46,-12.1 -18.14,-19.85 -4.68,-7.76 -7.02,-16.43 -7.02,-26.01 0,-11.18 2.23,-21.22 6.67,-30.12 4.45,-8.9 10.33,-16.43 17.63,-22.59 7.3,-6.16 15.8,-10.89 25.5,-14.21 9.69,-3.31 19.91,-4.96 30.63,-4.96 15.75,0 30.86,3.37 45.35,10.1 14.49,6.73 26.87,15.92 37.13,27.55 5.25,-2.97 11.41,-6.05 18.48,-9.24 7.07,-3.19 14.49,-6.16 22.25,-8.9 7.76,-2.74 15.46,-4.96 23.1,-6.67 7.64,-1.71 14.55,-2.57 20.71,-2.57 8.44,0 15,2 19.68,5.99 4.68,3.99 6.67,9.07 5.99,15.23 0,6.62 -2.45,13.57 -7.36,20.88 -4.9,7.3 -11.58,14.49 -20.02,21.56 -8.44,7.07 -18.37,13.98 -29.78,20.71 -11.41,6.73 -23.56,12.78 -36.45,18.14 -12.89,5.36 -26.18,9.93 -39.87,13.69 -13.69,3.76 -27.15,6.33 -40.39,7.7 -1.14,2.51 -2.11,5.42 -2.91,8.73 -0.8,3.31 -1.2,6.44 -1.2,9.41 0,11.18 1.71,18.71 5.13,22.59 3.42,3.88 7.98,5.82 13.69,5.82 7.98,0 16.09,-1.77 24.3,-5.31 8.21,-3.54 16.09,-7.93 23.62,-13.17 7.53,-5.25 14.66,-10.9 21.39,-16.94 6.73,-6.05 12.72,-11.69 17.97,-16.94 5.25,-5.25 9.7,-9.64 13.35,-13.18 3.65,-3.54 6.16,-5.3 7.53,-5.3 1.6,0 2.4,0.45 2.4,1.37 0,1.14 -0.68,2.57 -2.05,4.28 -1.37,1.71 -3.76,5.36 -7.19,10.95 -3.42,5.59 -8.04,14.09 -13.86,25.5 -5.82,11.41 -13.18,27.38 -22.08,47.92 -7.76,17.8 -17.4,33.54 -28.92,47.23 -11.53,13.69 -24.3,25.27 -38.33,34.74 -14.03,9.47 -28.98,16.66 -44.84,21.56 -15.86,4.9 -32.12,7.36 -48.78,7.36 -12.77,0 -24.64,-1.65 -35.59,-4.96 -10.95,-3.31 -20.42,-7.87 -28.41,-13.69 -7.99,-5.82 -14.26,-12.83 -18.83,-21.05 -4.56,-8.21 -6.84,-17.12 -6.84,-26.7 0,-11.64 2.91,-22.36 8.73,-32.17 5.82,-9.81 13.29,-18.2 22.42,-25.16 9.13,-6.96 19.23,-12.38 30.29,-16.26 11.07,-3.88 21.74,-5.82 32,-5.82 8.67,0 17,1.14 24.99,3.42 7.98,2.28 15,5.59 21.05,9.92 6.04,4.33 10.89,9.7 14.54,16.09 3.65,6.39 5.48,13.69 5.48,21.91 0,8.67 -2.05,16.49 -6.16,23.45 -4.11,6.96 -9.41,12.95 -15.92,17.97 -6.5,5.02 -13.81,8.84 -21.91,11.46 -8.1,2.62 -16.26,3.94 -24.47,3.94 -5.93,0 -11.69,-0.46 -17.29,-1.37 -5.59,-0.91 -10.49,-2.05 -14.71,-3.42 -4.22,-1.37 -7.59,-2.74 -10.1,-4.11 -2.51,-1.37 -3.76,-2.39 -3.76,-3.08 0,-0.46 0.23,-0.85 0.68,-1.2 0.46,-0.34 0.91,-0.51 1.37,-0.51 0.68,0 2.05,0.51 4.11,1.54 2.05,1.03 4.79,2.11 8.21,3.25 3.42,1.14 7.59,2.23 12.49,3.25 4.91,1.03 10.67,1.54 17.29,1.54 7.53,0 15.23,-1.14 23.1,-3.42 7.87,-2.28 15,-5.65 21.39,-10.1 6.39,-4.45 11.58,-9.98 15.57,-16.6 3.99,-6.62 5.99,-14.26 5.99,-22.93 0,-6.39 -1.43,-12.09 -4.28,-17.11 -2.85,-5.02 -6.73,-9.3 -11.63,-12.83 -4.91,-3.54 -10.67,-6.22 -17.29,-8.04 -6.62,-1.82 -13.58,-2.74 -20.88,-2.74 -10.49,0 -21.22,1.77 -32.17,5.3 -10.95,3.54 -20.88,8.61 -29.78,15.23 -8.9,6.62 -16.2,14.6 -21.9,23.96 -5.7,9.35 -8.56,19.85 -8.56,31.49 0,7.3 1.94,14.32 5.82,21.05 3.88,6.73 9.36,12.67 16.43,17.8 7.07,5.13 15.58,9.18 25.5,12.15 9.92,2.97 20.94,4.45 33.03,4.45 13.47,0 25.84,-1.71 37.14,-5.13 11.29,-3.42 21.73,-8.44 31.32,-15.06 9.58,-6.62 18.65,-14.72 27.21,-24.3 8.56,-9.58 16.83,-20.42 24.81,-32.51 7.76,-11.86 15.23,-23.27 22.42,-34.23 7.19,-10.95 13.69,-20.88 19.51,-29.78 5.82,-8.9 10.95,-16.54 15.4,-22.93 4.45,-6.39 7.93,-10.96 10.44,-13.69l-0.68 -0.68zm-200.57 -62.64c0,8.9 2.28,16.77 6.84,23.62 4.56,6.84 10.44,12.66 17.63,17.46 7.19,4.79 15.17,8.38 23.96,10.78 8.78,2.39 17.28,3.59 25.5,3.59 3.42,-9.13 8.04,-17.57 13.86,-25.33 5.82,-7.76 12.26,-15 19.34,-21.73 7.07,-6.73 14.6,-12.89 22.59,-18.48 7.98,-5.59 16.09,-10.89 24.3,-15.92 -9.58,-11.18 -21.45,-19.91 -35.59,-26.18 -14.15,-6.27 -29.43,-9.41 -45.86,-9.41 -10.96,0 -20.88,1.83 -29.78,5.48 -8.9,3.65 -16.55,8.38 -22.93,14.21 -6.39,5.82 -11.29,12.38 -14.72,19.68 -3.42,7.3 -5.13,14.72 -5.13,22.25zm263.55 -34.91c0,-5.93 -1.65,-10.15 -4.96,-12.66 -3.31,-2.51 -8.73,-3.77 -16.26,-3.77 -6.39,0 -13.17,0.86 -20.36,2.57 -7.19,1.71 -14.32,3.94 -21.39,6.67 -7.07,2.74 -13.86,5.88 -20.37,9.41 -6.5,3.54 -12.26,7.13 -17.28,10.78 5.25,7.98 9.75,15.06 13.52,21.22 3.76,6.16 5.65,10.15 5.65,11.98 0,1.14 -0.91,1.71 -2.74,1.71 -0.69,0 -2.62,-3.31 -5.82,-9.93 -3.19,-6.61 -7.87,-14.03 -14.03,-22.25 -13.69,9.58 -26.13,20.65 -37.31,33.2 -11.18,12.55 -19.51,26.81 -24.98,42.78 12.55,0 25.44,-1.43 38.67,-4.28 13.24,-2.85 26.01,-6.62 38.33,-11.29 12.32,-4.68 23.9,-10.1 34.74,-16.26 10.84,-6.16 20.31,-12.6 28.41,-19.34 8.1,-6.73 14.49,-13.57 19.17,-20.54 4.68,-6.96 7.02,-13.63 7.02,-20.02zm-58.87 172.51c-1.14,0 -1.71,-0.57 -1.71,-1.71 0,-0.46 0.63,-1.48 1.88,-3.08 1.25,-1.6 2.91,-3.54 4.96,-5.82 2.05,-2.28 4.28,-4.68 6.67,-7.19 2.4,-2.51 4.62,-5.02 6.67,-7.53 7.3,-7.98 13.75,-13.97 19.34,-17.97 5.59,-3.99 10.78,-5.99 15.57,-5.99 4.34,0 7.64,1.65 9.93,4.96 2.28,3.31 3.42,7.02 3.42,11.12 0,3.42 -0.8,7.3 -2.39,11.64 -1.6,4.33 -3.54,8.67 -5.82,13 -2.28,4.33 -4.68,8.44 -7.19,12.32 -2.51,3.88 -4.56,6.96 -6.16,9.24l0.69 0.68c9.13,-10.49 17.34,-18.94 24.64,-25.33 7.3,-6.39 11.75,-11.86 13.35,-16.43 1.82,-5.02 4.56,-9.81 8.21,-14.38 3.65,-4.56 8.44,-6.84 14.38,-6.84 5.47,0 8.21,1.82 8.21,5.47 0,3.42 -2,6.67 -5.99,9.75 -3.99,3.08 -8.38,6.45 -13.18,10.1 -4.79,3.65 -9.18,7.64 -13.17,11.98 -3.99,4.34 -5.99,9.47 -5.99,15.4 0,3.42 1.08,6.22 3.25,8.39 2.17,2.17 4.85,3.25 8.04,3.25 5.7,0 10.84,-2.28 15.4,-6.84 3.88,-3.88 6.62,-7.02 8.21,-9.41 1.6,-2.39 2.74,-3.59 3.42,-3.59 1.37,0 2.05,0.57 2.05,1.71 0,0.46 -1.03,1.94 -3.08,4.45 -2.05,2.51 -3.88,4.68 -5.48,6.5 -3.42,3.88 -6.96,6.62 -10.61,8.21 -3.65,1.6 -7.07,2.4 -10.27,2.4 -3.88,0 -7.36,-1.2 -10.44,-3.59 -3.08,-2.4 -4.62,-5.65 -4.62,-9.75 0,-3.88 0.57,-7.36 1.71,-10.44 1.14,-3.08 2.85,-5.99 5.13,-8.73l-0.68 -0.68c-8.9,8.21 -17.57,17.23 -26.01,27.04 -8.44,9.81 -17,20.31 -25.67,31.49l-21.56 2.05c8.67,-13.92 16.26,-25.84 22.76,-35.77 6.5,-9.92 11.98,-18.2 16.43,-24.81 4.45,-6.62 7.81,-11.98 10.09,-16.09 2.28,-4.11 3.42,-7.3 3.42,-9.58 0,-3.19 -1.94,-4.79 -5.82,-4.79 -2.51,0 -5.88,1.2 -10.1,3.59 -4.22,2.39 -9.75,7.13 -16.6,14.2 -5.25,5.48 -9.47,9.98 -12.67,13.52 -3.19,3.54 -5.65,6.33 -7.36,8.38 -1.71,2.05 -2.97,3.48 -3.77,4.28 -0.8,0.8 -1.31,1.2 -1.54,1.2zm132.46 45.86c-5.25,0 -9.3,-1.65 -12.15,-4.96 -2.85,-3.31 -4.28,-7.58 -4.28,-12.83 0,-5.7 1.14,-11.41 3.42,-17.11 2.28,-5.7 5.08,-11.29 8.38,-16.77 3.31,-5.47 6.85,-10.72 10.61,-15.74 3.76,-5.02 7.13,-9.7 10.1,-14.04l-0.69 -0.68c-2.05,2.05 -5.36,5.48 -9.92,10.27 -4.56,4.79 -10.95,11.86 -19.17,21.22 -1.83,2.05 -2.97,3.31 -3.42,3.77 -0.46,0.46 -0.91,0.68 -1.37,0.68 -0.91,0 -1.37,-0.68 -1.37,-2.05 0,-0.46 0.57,-1.31 1.71,-2.57 1.14,-1.25 3.99,-4.51 8.56,-9.75 2.28,-2.51 4.85,-5.3 7.7,-8.38 2.85,-3.08 5.65,-6.16 8.38,-9.24 2.74,-3.08 5.3,-5.99 7.7,-8.73 2.4,-2.74 4.28,-5.02 5.65,-6.85l21.56 -1.37c-10.27,16.88 -18.54,30.4 -24.81,40.56 -6.27,10.15 -11.07,18.14 -14.38,23.96 -3.31,5.82 -5.53,10.04 -6.67,12.67 -1.14,2.62 -1.71,4.85 -1.71,6.67 0,2.97 0.69,4.91 2.05,5.82 1.37,0.91 2.85,1.37 4.45,1.37 2.74,0 5.7,-0.8 8.9,-2.4 3.2,-1.6 6.5,-3.59 9.93,-5.99 3.42,-2.4 6.79,-5.08 10.09,-8.04 3.31,-2.97 6.33,-5.93 9.07,-8.9 2.28,-2.28 4.62,-4.74 7.02,-7.36 2.39,-2.62 4.56,-5.08 6.5,-7.36 1.94,-2.28 3.59,-4.16 4.96,-5.65 1.37,-1.48 2.17,-2.22 2.4,-2.22 1.37,0 2.05,0.57 2.05,1.71 0,0.46 -1.65,2.68 -4.96,6.67 -3.31,3.99 -8.61,9.75 -15.92,17.29 -16.89,17.57 -30.35,26.35 -40.39,26.35zm53.39 -149.23c0,-2.97 1.03,-5.87 3.08,-8.73 2.05,-2.85 5.02,-4.28 8.9,-4.28 2.51,0 4.45,0.86 5.82,2.57 1.37,1.71 2.05,3.82 2.05,6.33 0,2.97 -1.03,5.88 -3.08,8.73 -2.05,2.85 -5.02,4.28 -8.9,4.28 -2.51,0 -4.45,-0.86 -5.82,-2.57 -1.37,-1.71 -2.05,-3.82 -2.05,-6.33zm88.99 69.14c0,-3.88 -0.69,-7.02 -2.05,-9.41 -1.37,-2.4 -3.99,-3.59 -7.87,-3.59 -5.7,0 -12.03,2.57 -19,7.7 -6.96,5.13 -13.52,11.63 -19.68,19.51 -6.16,7.87 -11.29,16.49 -15.4,25.84 -4.11,9.35 -6.16,18.26 -6.16,26.7 0,6.16 3.08,9.24 9.24,9.24 4.34,0 9.92,-2.51 16.77,-7.53 6.84,-5.02 13.52,-11.35 20.02,-19 6.5,-7.64 12.15,-15.92 16.94,-24.81 4.79,-8.9 7.19,-17.11 7.19,-24.64zm78.72 -125.27l20.2 -0.69c-13.47,23.96 -26.7,46.95 -39.71,68.97 -13,22.02 -24.64,41.87 -34.91,59.55 -10.27,17.68 -18.54,32.4 -24.81,44.15 -6.27,11.75 -9.41,19.34 -9.41,22.76 0,4.34 1.94,6.5 5.82,6.5 2.51,0 6.05,-1.48 10.61,-4.45 4.56,-2.96 10.5,-8.1 17.8,-15.4 9.13,-8.9 15.46,-15.63 19,-20.19 3.54,-4.56 5.53,-6.84 5.99,-6.84 1.37,0 2.05,0.46 2.05,1.37 0,0.91 -2.4,4.11 -7.19,9.58 -12.1,13.92 -22.13,24.07 -30.12,30.46 -7.98,6.39 -15.17,9.58 -21.56,9.58 -3.88,0 -6.96,-1.71 -9.24,-5.13 -2.28,-3.42 -3.42,-7.76 -3.42,-13 0,-2.74 0.29,-5.31 0.86,-7.7 0.57,-2.4 1.08,-4.51 1.54,-6.33l-0.68 -0.68c-1.83,2.97 -4.45,6.33 -7.87,10.1 -3.42,3.76 -7.19,7.36 -11.29,10.78 -4.11,3.42 -8.5,6.27 -13.17,8.55 -4.68,2.28 -9.18,3.42 -13.52,3.42 -3.42,0 -6.39,-0.97 -8.9,-2.91 -2.51,-1.94 -4.56,-4.39 -6.16,-7.36 -1.6,-2.97 -2.74,-6.33 -3.42,-10.1 -0.68,-3.76 -1.03,-7.36 -1.03,-10.78 0,-2.51 0.12,-5.25 0.34,-8.21 0.23,-2.96 0.57,-5.7 1.03,-8.21 -0.46,0 -0.86,0.29 -1.2,0.86 -0.34,0.57 -0.63,0.86 -0.86,0.86 -1.14,0 -1.71,-0.69 -1.71,-2.05 0,0 0.06,-0.17 0.17,-0.51 0.11,-0.34 0.51,-0.97 1.2,-1.88 0.69,-0.91 1.71,-2.22 3.08,-3.94 1.37,-1.71 3.31,-3.93 5.82,-6.67 9.35,-10.27 19.51,-18.88 30.46,-25.84 10.95,-6.96 22.13,-10.44 33.54,-10.44 4.34,0 8.1,1.25 11.29,3.76 3.2,2.51 4.79,6.39 4.79,11.64 0,1.6 0,3.14 0,4.62 0,1.48 -0.23,2.79 -0.69,3.93l0.69 0.69 74.61 -132.8zm145.12 202.62c3.88,-0.23 8.04,-0.17 12.5,0.17 4.45,0.34 10.09,0.51 16.94,0.51 20.76,0 40.78,-3.08 60.07,-9.24 19.28,-6.16 36.39,-15.11 51.34,-26.87 14.95,-11.75 26.92,-26.07 35.94,-42.96 9.01,-16.89 13.52,-36.17 13.52,-57.84 0,-11.63 -1.83,-23.33 -5.48,-35.08 -3.65,-11.75 -9.7,-21.96 -18.14,-30.63 -7.07,7.99 -13.4,16.37 -19,25.16 -5.59,8.78 -10.95,17.74 -16.09,26.87 -5.13,9.12 -10.15,18.42 -15.06,27.89 -4.9,9.47 -10.09,18.88 -15.57,28.24 -5.02,8.67 -11.12,17.86 -18.31,27.55 -7.19,9.69 -15.11,18.94 -23.79,27.72 -8.67,8.78 -18.03,16.6 -28.07,23.44 -10.04,6.85 -20.31,11.64 -30.8,14.38l0 0.69zm-78.72 -6.5c0,-3.88 4.79,-5.82 14.38,-5.82 5.93,0 11.46,0.46 16.6,1.37 5.13,0.91 10.1,1.88 14.89,2.91 4.79,1.03 9.53,1.94 14.21,2.74 4.68,0.8 9.52,1.2 14.54,1.2 8.21,0 16.2,-3.02 23.96,-9.07 7.76,-6.05 15.23,-13.75 22.42,-23.1 7.19,-9.35 14.14,-19.8 20.88,-31.32 6.73,-11.53 13.07,-22.76 19,-33.71 7.3,-13.24 14.32,-25.16 21.05,-35.76 6.73,-10.61 13.29,-20.2 19.68,-28.75 6.39,-8.56 12.78,-16.2 19.17,-22.93 6.39,-6.73 12.89,-12.83 19.51,-18.31 -3.88,-4.11 -8.61,-7.7 -14.21,-10.78 -5.59,-3.08 -11.63,-5.7 -18.14,-7.87 -6.5,-2.17 -13.12,-3.77 -19.85,-4.79 -6.73,-1.03 -13.29,-1.54 -19.68,-1.54 -4.56,0 -9.35,0.17 -14.38,0.51 -5.02,0.34 -9.58,0.97 -13.69,1.88 6.39,6.16 11.07,14.03 14.04,23.62 2.96,9.58 4.45,18.48 4.45,26.7 0,11.86 -2.39,23.96 -7.19,36.28 -4.79,12.32 -11.35,23.56 -19.68,33.71 -8.33,10.15 -18.08,18.48 -29.26,24.98 -11.18,6.5 -23.05,9.75 -35.6,9.75 -6.84,0 -13.23,-1.14 -19.17,-3.42 -5.93,-2.28 -11.01,-5.53 -15.23,-9.75 -4.22,-4.22 -7.53,-9.24 -9.92,-15.06 -2.4,-5.82 -3.59,-12.26 -3.59,-19.34 0,-14.15 3.42,-27.38 10.27,-39.71 6.84,-12.32 15.69,-23.27 26.53,-32.86 10.84,-9.58 22.87,-17.63 36.11,-24.13 13.24,-6.5 26.36,-11.01 39.36,-13.52 -5.7,-3.88 -12.15,-6.73 -19.34,-8.56 -7.19,-1.82 -14.32,-2.74 -21.39,-2.74 -17.8,0 -33.54,4.33 -47.24,13 -13.69,8.67 -25.67,20.08 -35.94,34.23 -6.39,8.9 -11.18,17.74 -14.38,26.52 -3.19,8.79 -5.59,16.72 -7.19,23.79 -1.6,7.07 -2.74,12.78 -3.42,17.11 -0.69,4.34 -1.48,6.5 -2.4,6.5 -0.91,0 -1.37,-0.8 -1.37,-2.4 0,-0.68 0.23,-3.19 0.69,-7.53 0.46,-4.34 1.43,-9.7 2.91,-16.09 1.48,-6.39 3.59,-13.35 6.33,-20.88 2.74,-7.53 6.39,-14.83 10.95,-21.9 12.1,-18.94 26.13,-33.09 42.1,-42.44 15.97,-9.35 32.51,-14.03 49.63,-14.03 6.62,0 14.09,1.14 22.42,3.42 8.33,2.28 15.8,5.93 22.42,10.96 6.16,-0.91 11.81,-1.6 16.94,-2.05 5.13,-0.46 9.41,-0.69 12.83,-0.69 6.85,0 13.86,0.51 21.05,1.54 7.19,1.03 14.21,2.68 21.05,4.96 6.85,2.28 13.29,5.08 19.34,8.38 6.05,3.31 11.35,7.13 15.92,11.47 4.33,-3.42 8.95,-6.73 13.86,-9.93 4.91,-3.19 9.47,-5.99 13.69,-8.38 4.22,-2.4 7.81,-4.33 10.78,-5.82 2.96,-1.48 4.56,-2.23 4.79,-2.23 1.14,0 1.71,1.03 1.71,3.08 0,0.46 -1.2,1.26 -3.59,2.4 -2.39,1.14 -5.47,2.85 -9.24,5.13 -3.76,2.28 -8.04,5.08 -12.83,8.38 -4.79,3.31 -9.58,7.47 -14.38,12.5 8.44,9.13 14.72,19.45 18.83,30.97 4.11,11.53 6.16,23.45 6.16,35.77 0,23.96 -4.85,44.84 -14.54,62.63 -9.7,17.8 -22.59,32.63 -38.68,44.5 -16.09,11.86 -34.45,20.76 -55.1,26.7 -20.65,5.93 -41.82,8.9 -63.49,8.9 -4.56,0 -9.18,-0.34 -13.86,-1.03 -4.68,-0.68 -9.3,-1.03 -13.86,-1.03 -5.93,0 -11.81,0.34 -17.63,1.03 -5.82,0.68 -11.69,1.03 -17.63,1.03 -25.55,0 -38.33,-3.76 -38.33,-11.29zm36.28 -100.97c0,10.5 2.97,17.91 8.9,22.25 5.93,4.33 13.69,6.5 23.27,6.5 11.86,0 22.99,-3.08 33.37,-9.24 10.38,-6.16 19.51,-14.09 27.38,-23.79 7.87,-9.7 14.09,-20.37 18.65,-32 4.56,-11.64 6.84,-22.93 6.84,-33.89 0,-9.12 -1.48,-18.31 -4.45,-27.55 -2.97,-9.24 -7.76,-17.06 -14.38,-23.45 -12.1,3.65 -24.13,9.3 -36.11,16.94 -11.98,7.64 -22.65,16.77 -32,27.38 -9.35,10.61 -16.94,22.42 -22.76,35.43 -5.82,13 -8.73,26.81 -8.73,41.41zm237.53 64.35c-1.14,0 -1.71,-0.57 -1.71,-1.71 0,-0.46 0.63,-1.48 1.88,-3.08 1.25,-1.6 2.91,-3.54 4.96,-5.82 2.05,-2.28 4.28,-4.68 6.67,-7.19 2.4,-2.51 4.62,-5.02 6.67,-7.53 7.3,-7.98 13.75,-13.97 19.34,-17.97 5.59,-3.99 10.78,-5.99 15.57,-5.99 4.34,0 7.64,1.65 9.93,4.96 2.28,3.31 3.42,7.02 3.42,11.12 0,3.42 -0.8,7.3 -2.39,11.64 -1.6,4.33 -3.54,8.67 -5.82,13 -2.28,4.33 -4.68,8.44 -7.19,12.32 -2.51,3.88 -4.56,6.96 -6.16,9.24l0.69 0.68c9.13,-10.49 17.34,-18.94 24.64,-25.33 7.3,-6.39 11.75,-11.86 13.35,-16.43 1.82,-5.02 4.56,-9.81 8.21,-14.38 3.65,-4.56 8.44,-6.84 14.38,-6.84 5.47,0 8.21,1.82 8.21,5.47 0,3.42 -2,6.67 -5.99,9.75 -3.99,3.08 -8.38,6.45 -13.18,10.1 -4.79,3.65 -9.18,7.64 -13.17,11.98 -3.99,4.34 -5.99,9.47 -5.99,15.4 0,3.42 1.08,6.22 3.25,8.39 2.17,2.17 4.85,3.25 8.04,3.25 5.7,0 10.84,-2.28 15.4,-6.84 3.88,-3.88 6.62,-7.02 8.21,-9.41 1.6,-2.39 2.74,-3.59 3.42,-3.59 1.37,0 2.05,0.57 2.05,1.71 0,0.46 -1.03,1.94 -3.08,4.45 -2.05,2.51 -3.88,4.68 -5.48,6.5 -3.42,3.88 -6.96,6.62 -10.61,8.21 -3.65,1.6 -7.07,2.4 -10.27,2.4 -3.88,0 -7.36,-1.2 -10.44,-3.59 -3.08,-2.4 -4.62,-5.65 -4.62,-9.75 0,-3.88 0.57,-7.36 1.71,-10.44 1.14,-3.08 2.85,-5.99 5.13,-8.73l-0.68 -0.68c-8.9,8.21 -17.57,17.23 -26.01,27.04 -8.44,9.81 -17,20.31 -25.67,31.49l-21.56 2.05c8.67,-13.92 16.26,-25.84 22.76,-35.77 6.5,-9.92 11.98,-18.2 16.43,-24.81 4.45,-6.62 7.81,-11.98 10.09,-16.09 2.28,-4.11 3.42,-7.3 3.42,-9.58 0,-3.19 -1.94,-4.79 -5.82,-4.79 -2.51,0 -5.88,1.2 -10.1,3.59 -4.22,2.39 -9.75,7.13 -16.6,14.2 -5.25,5.48 -9.47,9.98 -12.67,13.52 -3.19,3.54 -5.65,6.33 -7.36,8.38 -1.71,2.05 -2.97,3.48 -3.77,4.28 -0.8,0.8 -1.31,1.2 -1.54,1.2zm135.88 45.86c-4.33,0 -7.93,-0.91 -10.78,-2.74 -2.85,-1.83 -5.08,-4.16 -6.67,-7.02 -1.6,-2.85 -2.68,-6.16 -3.25,-9.92 -0.57,-3.77 -0.86,-7.59 -0.86,-11.47 0,-2.74 0.17,-5.42 0.51,-8.04 0.34,-2.62 0.74,-5.31 1.2,-8.04 -0.45,0 -0.8,0.17 -1.03,0.51 -0.23,0.34 -0.57,0.51 -1.03,0.51 -0.91,0 -1.37,-0.57 -1.37,-1.71 0,-0.69 0.34,-1.37 1.03,-2.05 0.68,-0.69 2.17,-2.4 4.45,-5.13 4.56,-5.71 9.7,-10.96 15.4,-15.75 5.71,-4.79 11.58,-9.01 17.63,-12.67 6.05,-3.65 12.21,-6.5 18.48,-8.55 6.27,-2.05 12.38,-3.08 18.31,-3.08 5.25,0 9.01,1.65 11.29,4.96 2.28,3.31 3.42,7.24 3.42,11.81 0,4.11 -0.34,7.19 -1.03,9.24l0.68 0.69c2.97,-4.79 5.31,-8.79 7.02,-11.98 1.71,-3.19 3.14,-5.65 4.28,-7.36 1.14,-1.71 2.23,-2.97 3.25,-3.76 1.03,-0.8 2.45,-1.2 4.28,-1.2l16.43 -0.68c-1.6,1.82 -3.93,4.96 -7.01,9.41 -3.08,4.45 -6.45,9.47 -10.1,15.06 -3.65,5.59 -7.36,11.46 -11.12,17.63 -3.76,6.16 -7.24,12.1 -10.44,17.8 -3.19,5.7 -5.76,10.72 -7.7,15.06 -1.94,4.33 -2.91,7.53 -2.91,9.58 0,3.19 1.94,4.79 5.82,4.79 5.25,0 12.15,-3.94 20.71,-11.81 8.55,-7.87 17.86,-17.63 27.89,-29.26 2.05,-2.51 3.31,-4.05 3.77,-4.62 0.45,-0.57 0.91,-0.86 1.37,-0.86 0.69,0 1.2,0.23 1.54,0.69 0.34,0.46 0.51,0.91 0.51,1.37 0,0.23 -0.63,1.08 -1.88,2.57 -1.26,1.48 -2.8,3.25 -4.62,5.31 -1.83,2.05 -3.82,4.33 -5.99,6.84 -2.17,2.51 -4.28,4.79 -6.33,6.84 -7.99,8.21 -15.18,14.78 -21.57,19.68 -6.39,4.9 -11.86,7.36 -16.43,7.36 -4.56,0 -8.21,-1.6 -10.95,-4.79 -2.74,-3.2 -4.11,-9.47 -4.11,-18.83 0,-1.14 0.06,-2.22 0.17,-3.25 0.12,-1.03 0.17,-2 0.17,-2.91 -2.51,2.51 -5.53,5.48 -9.07,8.9 -3.54,3.42 -7.24,6.67 -11.12,9.75 -3.88,3.08 -7.76,5.7 -11.63,7.87 -3.88,2.17 -7.42,3.25 -10.61,3.25zm-7.87 -15.06c0,3.19 0.63,5.82 1.88,7.87 1.26,2.05 3.25,3.08 5.99,3.08 5.02,0 11.07,-2.68 18.14,-8.04 7.07,-5.36 13.92,-11.92 20.54,-19.68 6.62,-7.76 12.26,-15.92 16.94,-24.47 4.68,-8.55 7.02,-16.03 7.02,-22.42 0,-3.42 -0.86,-6.33 -2.57,-8.73 -1.71,-2.4 -4.39,-3.59 -8.04,-3.59 -6.84,0 -13.86,2.79 -21.05,8.38 -7.19,5.59 -13.63,12.38 -19.34,20.37 -5.7,7.98 -10.38,16.31 -14.04,24.98 -3.65,8.67 -5.47,16.09 -5.47,22.25z"/>
   <path fill="#393185" d="M1538.2 186.24c-1.6,2.28 -3.88,5.65 -6.84,10.09 -2.97,4.45 -6.22,9.35 -9.76,14.72 -3.53,5.36 -7.13,11.01 -10.78,16.94 -3.65,5.93 -6.96,11.58 -9.92,16.94 -2.97,5.36 -5.42,10.21 -7.36,14.54 -1.94,4.34 -2.91,7.64 -2.91,9.93 0,5.25 2.85,7.87 8.56,7.87 5.47,0 11.69,-1.83 18.65,-5.48 6.96,-3.65 13.58,-8.61 19.85,-14.89 6.27,-6.27 11.69,-13.69 16.26,-22.25 4.56,-8.56 7.07,-17.74 7.53,-27.55 0.46,-9.13 1.37,-14.89 2.74,-17.28 1.37,-2.4 3.99,-3.59 7.87,-3.59 2.51,0 4.45,0.8 5.82,2.39 1.37,1.6 2.05,3.31 2.05,5.13 0,4.34 -1.14,9.41 -3.42,15.23 -2.28,5.82 -5.08,11.58 -8.39,17.29 -3.31,5.7 -6.9,11.01 -10.78,15.92 -3.88,4.9 -7.53,8.61 -10.95,11.12l0.68 0.69c7.3,-0.46 13.97,-2.51 20.02,-6.16 6.05,-3.65 10.67,-7.19 13.86,-10.61 2.28,-2.51 3.77,-4.28 4.45,-5.3 0.68,-1.03 1.37,-1.54 2.05,-1.54 1.14,0 1.71,0.68 1.71,2.05 0,0.46 -1.37,2.28 -4.11,5.47 -2.74,3.2 -6.39,6.39 -10.95,9.58 -3.88,2.51 -8.27,4.79 -13.18,6.84 -4.9,2.05 -10.67,3.31 -17.28,3.77 -0.91,0 -2.63,1.25 -5.13,3.76 -2.51,2.51 -5.76,5.19 -9.75,8.04 -3.99,2.85 -8.56,5.47 -13.69,7.87 -5.13,2.4 -10.78,3.59 -16.94,3.59 -4.11,0 -7.42,-0.74 -9.93,-2.22 -2.51,-1.48 -4.45,-3.42 -5.82,-5.82 -1.37,-2.39 -2.28,-5.13 -2.74,-8.21 -0.46,-3.08 -0.69,-6.22 -0.69,-9.41 0,-1.6 0.17,-3.08 0.51,-4.45 0.34,-1.37 0.74,-2.51 1.2,-3.42l-0.69 -0.69c-2.51,2.51 -5.53,5.7 -9.07,9.58 -3.54,3.88 -7.36,7.64 -11.47,11.29 -4.11,3.65 -8.33,6.79 -12.66,9.41 -4.34,2.62 -8.56,3.94 -12.67,3.94 -5.93,0 -10.27,-1.77 -13,-5.3 -2.74,-3.54 -4.11,-8.16 -4.11,-13.86 0,-5.7 1.25,-11.41 3.76,-17.12 2.51,-5.7 5.53,-11.24 9.07,-16.6 3.54,-5.36 7.3,-10.5 11.29,-15.4 3.99,-4.91 7.59,-9.41 10.78,-13.52l-0.69 -0.69c-5.47,4.56 -10.09,8.73 -13.86,12.5 -3.76,3.76 -7.81,8.27 -12.15,13.52 -3.88,4.56 -6.39,7.41 -7.53,8.56 -1.14,1.14 -1.94,1.71 -2.4,1.71 -0.91,0 -1.37,-0.68 -1.37,-2.05 0,-0.46 0.63,-1.31 1.88,-2.57 1.26,-1.25 3.48,-3.94 6.67,-8.04 5.93,-7.07 12.15,-13.69 18.66,-19.85 6.5,-6.16 12.03,-11.29 16.6,-15.4l19.51 -1.03c-1.37,2.28 -3.59,5.65 -6.67,10.09 -3.08,4.45 -6.44,9.47 -10.1,15.06 -3.65,5.59 -7.47,11.46 -11.46,17.63 -3.99,6.16 -7.59,11.98 -10.78,17.46 -3.19,5.48 -5.82,10.27 -7.87,14.38 -2.05,4.11 -3.08,6.96 -3.08,8.56 0,1.82 0.51,3.59 1.54,5.3 1.03,1.71 2.68,2.57 4.96,2.57 5.48,0 12.04,-3.02 19.68,-9.07 7.64,-6.04 15.35,-13.52 23.1,-22.42 7.76,-8.9 15.11,-18.54 22.08,-28.92 6.96,-10.38 12.6,-19.91 16.94,-28.58l22.59 -2.05zm135.88 16.43c0,6.39 -2.74,12.15 -8.21,17.28 -5.48,5.13 -11.98,9.58 -19.51,13.35 -7.53,3.77 -15.29,6.9 -23.27,9.41 -7.99,2.51 -14.49,4.22 -19.51,5.13 -0.46,1.82 -0.8,3.71 -1.03,5.65 -0.23,1.94 -0.34,3.82 -0.34,5.65 0,6.62 1.08,11.24 3.25,13.86 2.17,2.62 5.88,4.05 11.12,4.28 4.56,0.23 11.07,-1.65 19.51,-5.65 8.44,-3.99 17.91,-11.12 28.41,-21.39 6.62,-6.84 11.12,-11.86 13.52,-15.06 2.39,-3.19 3.93,-4.79 4.62,-4.79 1.14,0 1.71,0.68 1.71,2.05 0,0.46 -0.74,1.6 -2.22,3.42 -1.48,1.83 -3.37,4.05 -5.65,6.67 -2.28,2.62 -4.85,5.42 -7.7,8.39 -2.85,2.96 -5.53,5.59 -8.04,7.87 -8.67,7.99 -16.6,13.69 -23.79,17.11 -7.19,3.42 -14.78,5.25 -22.76,5.48 -4.79,0 -8.84,-1.03 -12.15,-3.08 -3.31,-2.05 -6.1,-4.79 -8.39,-8.21 -2.28,-3.42 -3.93,-7.3 -4.96,-11.64 -1.03,-4.33 -1.54,-8.78 -1.54,-13.35 0,-2.51 0.17,-4.68 0.51,-6.5 0.34,-1.83 0.51,-2.97 0.51,-3.42 0,-0.23 -0.11,-0.46 -0.34,-0.68 -0.68,0.68 -1.03,1.03 -1.03,1.03 -0.23,0 -0.57,-0.23 -1.03,-0.69 -0.46,-0.46 -0.68,-0.91 -0.68,-1.37 0,-0.23 0.51,-1.03 1.54,-2.4 1.03,-1.37 2.28,-2.85 3.76,-4.45 1.48,-1.6 2.91,-3.14 4.28,-4.62 1.37,-1.48 2.4,-2.57 3.08,-3.25 9.58,-9.58 19.51,-17.4 29.78,-23.45 10.27,-6.05 20.08,-9.07 29.44,-9.07 5.25,0 9.41,1.54 12.49,4.62 3.08,3.08 4.62,7.01 4.62,11.81zm-17.11 -12.32c-4.56,0 -9.58,1.88 -15.06,5.65 -5.47,3.76 -10.78,8.38 -15.92,13.86 -5.13,5.47 -9.64,11.29 -13.52,17.46 -3.88,6.16 -6.39,11.63 -7.53,16.43 5.71,-0.69 11.98,-2.34 18.83,-4.96 6.84,-2.62 13.24,-6.05 19.17,-10.27 5.93,-4.22 10.9,-9.01 14.89,-14.38 3.99,-5.36 5.99,-11.12 5.99,-17.29 0,-4.33 -2.28,-6.5 -6.84,-6.5zm24.64 45.18c-1.14,0 -1.71,-0.57 -1.71,-1.71 0,-0.46 0.63,-1.48 1.88,-3.08 1.25,-1.6 2.91,-3.54 4.96,-5.82 2.05,-2.28 4.28,-4.68 6.67,-7.19 2.4,-2.51 4.62,-5.02 6.67,-7.53 7.3,-7.98 13.75,-13.97 19.34,-17.97 5.59,-3.99 10.78,-5.99 15.57,-5.99 4.34,0 7.64,1.65 9.93,4.96 2.28,3.31 3.42,7.02 3.42,11.12 0,3.42 -0.8,7.3 -2.39,11.64 -1.6,4.33 -3.54,8.67 -5.82,13 -2.28,4.33 -4.68,8.44 -7.19,12.32 -2.51,3.88 -4.56,6.96 -6.16,9.24l0.69 0.68c9.13,-10.49 17.34,-18.94 24.64,-25.33 7.3,-6.39 11.75,-11.86 13.35,-16.43 1.82,-5.02 4.56,-9.81 8.21,-14.38 3.65,-4.56 8.44,-6.84 14.38,-6.84 5.47,0 8.21,1.82 8.21,5.47 0,3.42 -2,6.67 -5.99,9.75 -3.99,3.08 -8.38,6.45 -13.18,10.1 -4.79,3.65 -9.18,7.64 -13.17,11.98 -3.99,4.34 -5.99,9.47 -5.99,15.4 0,3.42 1.08,6.22 3.25,8.39 2.17,2.17 4.85,3.25 8.04,3.25 5.7,0 10.84,-2.28 15.4,-6.84 3.88,-3.88 6.62,-7.02 8.21,-9.41 1.6,-2.39 2.74,-3.59 3.42,-3.59 1.37,0 2.05,0.57 2.05,1.71 0,0.46 -1.03,1.94 -3.08,4.45 -2.05,2.51 -3.88,4.68 -5.48,6.5 -3.42,3.88 -6.96,6.62 -10.61,8.21 -3.65,1.6 -7.07,2.4 -10.27,2.4 -3.88,0 -7.36,-1.2 -10.44,-3.59 -3.08,-2.4 -4.62,-5.65 -4.62,-9.75 0,-3.88 0.57,-7.36 1.71,-10.44 1.14,-3.08 2.85,-5.99 5.13,-8.73l-0.68 -0.68c-8.9,8.21 -17.57,17.23 -26.01,27.04 -8.44,9.81 -17,20.31 -25.67,31.49l-21.56 2.05c8.67,-13.92 16.26,-25.84 22.76,-35.77 6.5,-9.92 11.98,-18.2 16.43,-24.81 4.45,-6.62 7.81,-11.98 10.09,-16.09 2.28,-4.11 3.42,-7.3 3.42,-9.58 0,-3.19 -1.94,-4.79 -5.82,-4.79 -2.51,0 -5.88,1.2 -10.1,3.59 -4.22,2.39 -9.75,7.13 -16.6,14.2 -5.25,5.48 -9.47,9.98 -12.67,13.52 -3.19,3.54 -5.65,6.33 -7.36,8.38 -1.71,2.05 -2.97,3.48 -3.77,4.28 -0.8,0.8 -1.31,1.2 -1.54,1.2z"/>
</svg>
